<?xml version="1.0" encoding="UTF-8" standalone="no"?>
<svg width="69px" height="67px" viewBox="0 0 69 67" version="1.1" xmlns="http://www.w3.org/2000/svg" xmlns:xlink="http://www.w3.org/1999/xlink" xmlns:sketch="http://www.bohemiancoding.com/sketch/ns">
    <g id="Page-1" stroke="none" stroke-width="1" fill="none" fill-rule="evenodd" sketch:type="MSPage">
        <g id="Turn-view" sketch:type="MSLayerGroup" transform="translate(-231.000000, -25.000000)" stroke="#2CC36B" fill="#FFFFFF">
            <g id="Got-it-Button" transform="translate(232.000000, 26.000000)" sketch:type="MSShapeGroup">
                <path d="M67,32.5 C67,50.4493083 52.0015947,65 33.5,65 C14.9984053,65 0,50.4493083 0,32.5 C0,14.5506917 14.9984053,0 33.5,0 C52.0015947,0 67,14.5506917 67,32.5 L67,32.5 Z M60.4951456,32.5 C60.4951456,18.0240898 48.4192087,6.31067961 33.5,6.31067961 C18.5786772,6.31067961 6.50485437,18.0262985 6.50485437,32.5 C6.50485437,46.9759102 18.5807913,58.6893204 33.5,58.6893204 C48.4213228,58.6893204 60.4951456,46.9737015 60.4951456,32.5 L60.4951456,32.5 Z M46.8713786,18.5592354 L27.9884369,36.8785073 L19.809233,28.94125 L13.7441068,34.826432 L27.9885995,48.6495024 L52.9392694,24.442051 L46.8713786,18.5592354 L46.8713786,18.5592354 Z" id="check-mark-4-icon"></path>
            </g>
        </g>
    </g>
</svg>
