<?xml version="1.0" encoding="UTF-8" standalone="no"?>
<svg width="69px" height="67px" viewBox="0 0 69 67" version="1.1" xmlns="http://www.w3.org/2000/svg" xmlns:xlink="http://www.w3.org/1999/xlink" xmlns:sketch="http://www.bohemiancoding.com/sketch/ns">
    <!-- Generator: Sketch 3.4.4 (17249) - http://www.bohemiancoding.com/sketch -->
    <title>Page-1</title>
    <desc>Created with Sketch.</desc>
    <defs></defs>
    <g id="Page-1" stroke="none" stroke-width="1" fill="none" fill-rule="evenodd" sketch:type="MSPage">
        <g sketch:type="MSLayerGroup" transform="translate(1.000000, 1.000000)" id="Turn-view" stroke="#A29292" fill="#A29292">
            <g sketch:type="MSShapeGroup">
                <g id="Pass-Button">
                    <g id="Group">
                        <path d="M9.82438776,9.53112245 C3.27479592,15.8852041 0,23.5658163 0,32.4336735 C0,41.4341837 3.27479592,49.1147959 9.82438776,55.4688776 L9.82438776,55.4688776 C16.3739796,61.8229592 24.1541837,65 33.4316327,65 C42.7090816,65 50.6260204,61.8229592 57.1756122,55.4688776 C63.7252041,49.1147959 67,41.4341837 67,32.4336735 C67,23.4331633 63.7252041,15.8852041 57.1756122,9.53112245 L57.1756122,9.53112245 C50.6260204,3.17704082 42.7090816,0 33.4316327,0 C24.2909184,0 16.3739796,3.17704082 9.82438776,9.53112245 L9.82438776,9.53112245 L9.82438776,9.53112245 Z M13.6461224,13.3714286 L13.7828571,13.2387755 C19.1018367,7.93928571 25.7881633,5.29285714 33.4316327,5.29285714 C41.2118367,5.29285714 47.7614286,7.93928571 53.3538776,13.3714286 C58.8095918,18.5316327 61.5442857,25.0183673 61.5442857,32.4336735 C61.5442857,39.9816327 58.8164286,46.3357143 53.3538776,51.7612245 C47.7614286,57.0607143 41.2118367,59.7071429 33.4316327,59.7071429 C25.7881633,59.7071429 19.1018367,57.0607143 13.7828571,51.7612245 C8.19040816,46.3357143 5.45571429,39.9816327 5.45571429,32.4336735 C5.45571429,25.0183673 8.19040816,18.5316327 13.6461224,13.3714286 L13.6461224,13.3714286 L13.6461224,13.3714286 Z" id="Shape"></path>
                        <path d="M19.3753061,21.3107143 C19.3753061,22.1066327 19.6487755,22.769898 20.1957143,23.2938776 L29.609898,32.3010204 L20.1957143,41.3015306 C19.6487755,41.8321429 19.3753061,42.4954082 19.3753061,43.2846939 C19.3753061,43.9479592 19.6487755,44.4785714 20.1957143,45.0091837 C20.7426531,45.5397959 21.4263265,45.805102 22.11,45.805102 C22.9304082,45.805102 23.4773469,45.5397959 24.017449,45.1418367 L33.4316327,36.0086735 L42.7090816,45.1418367 C43.2560204,45.5397959 43.8029592,45.805102 44.6233673,45.805102 C45.4437755,45.805102 46.1206122,45.5397959 46.5308163,45.1418367 C47.0777551,44.6112245 47.3512245,43.9479592 47.3512245,43.2846939 C47.3512245,42.4887755 47.0777551,41.8321429 46.5308163,41.3015306 L37.2533673,32.3010204 L46.5308163,23.3005102 C47.0777551,22.769898 47.3512245,22.1066327 47.3512245,21.45 C47.3512245,20.6540816 47.0777551,19.9908163 46.5308163,19.4668367 C46.1206122,18.9362245 45.4369388,18.6709184 44.760102,18.6709184 C43.9396939,18.6709184 43.2628571,18.9362245 42.7159184,19.4668367 L33.4316327,28.5933673 L24.1541837,19.4602041 C23.6072449,18.9295918 22.9235714,18.6642857 22.11,18.6642857 C21.4263265,18.6642857 20.7426531,18.9295918 20.1957143,19.4602041 C19.6487755,19.9908163 19.3753061,20.6540816 19.3753061,21.3107143 L19.3753061,21.3107143 L19.3753061,21.3107143 Z" id="Shape"></path>
                    </g>
                </g>
            </g>
        </g>
    </g>
</svg>